<svg width="262" height="101" viewBox="0 0 262 101" fill="none" xmlns="http://www.w3.org/2000/svg">
<path d="M15.2722 96.6876C14.5251 96.6876 13.8891 96.5174 13.3639 96.1772C12.8462 95.837 12.4837 95.371 12.2766 94.7793L13.375 94.1358C13.6856 95.0086 14.3291 95.445 15.3055 95.445C15.7862 95.445 16.145 95.3525 16.3816 95.1676C16.6257 94.9753 16.7478 94.7275 16.7478 94.4243C16.7478 94.1062 16.6183 93.8658 16.3595 93.7031C16.1006 93.533 15.642 93.3481 14.9837 93.1484C14.6139 93.0374 14.3143 92.9339 14.0851 92.8377C13.8558 92.7416 13.6117 92.6084 13.3528 92.4383C13.1013 92.2608 12.9127 92.0426 12.787 91.7837C12.6612 91.5249 12.5984 91.2216 12.5984 90.874C12.5984 90.1861 12.8425 89.6425 13.3306 89.2431C13.8188 88.8363 14.4068 88.6328 15.0947 88.6328C15.716 88.6328 16.2596 88.7845 16.7256 89.0877C17.1916 89.391 17.5503 89.8089 17.8018 90.3414L16.7256 90.9627C16.4001 90.2379 15.8565 89.8755 15.0947 89.8755C14.7248 89.8755 14.429 89.9642 14.2071 90.1417C13.9852 90.3118 13.8743 90.5448 13.8743 90.8407C13.8743 91.1291 13.9852 91.3584 14.2071 91.5286C14.4364 91.6913 14.8469 91.8651 15.4386 92.05C15.7345 92.1462 15.949 92.2201 16.0821 92.2719C16.2226 92.3163 16.4149 92.3902 16.659 92.4938C16.9105 92.5973 17.0991 92.7009 17.2248 92.8044C17.3506 92.908 17.4837 93.0374 17.6243 93.1928C17.7722 93.3481 17.8757 93.5256 17.9349 93.7253C17.9941 93.925 18.0237 94.1506 18.0237 94.4021C18.0237 95.1047 17.7685 95.6632 17.2581 96.0774C16.7552 96.4842 16.0932 96.6876 15.2722 96.6876Z" fill="#718EBF"/>
<path d="M0.539124 69.9012C0.539124 67.6034 2.40184 65.7407 4.69962 65.7407H24.1153C26.413 65.7407 28.2757 67.6034 28.2757 69.9012V82.3827H0.539124V69.9012Z" fill="#E8F2FF"/>
<path d="M51.75 88.7771V96.5433H50.4741V91.0071L48.111 94.9124H47.9557L45.5925 90.996V96.5433H44.3166V88.7771H45.6923L48.0333 92.6602L50.3854 88.7771H51.75Z" fill="#718EBF"/>
<path d="M33.8231 61.5803C33.8231 59.2825 35.6858 57.4198 37.9836 57.4198H57.3992C59.697 57.4198 61.5597 59.2825 61.5597 61.5803V82.3828H33.8231V61.5803Z" fill="#E8F2FF"/>
<path d="M84.0307 88.7771V89.9975H81.845V96.5433H80.5691V89.9975H78.3724V88.7771H84.0307Z" fill="#718EBF"/>
<path d="M67.107 28.2964C67.107 25.9986 68.9697 24.1359 71.2675 24.1359H90.6832C92.9809 24.1359 94.8437 25.9986 94.8437 28.2964V82.3828H67.107V28.2964Z" fill="#E8F2FF"/>
<path d="M111.589 96.5433L109.392 88.7771H110.734L112.365 94.8459L114.129 88.7771H115.305L117.058 94.8459L118.689 88.7771H120.032L117.835 96.5433H116.359L114.717 90.874L113.064 96.5433H111.589Z" fill="#718EBF"/>
<path d="M100.391 43.5515C100.391 41.2537 102.254 39.391 104.551 39.391H123.967C126.265 39.391 128.128 41.2537 128.128 43.5515V82.3828H100.391V43.5515Z" fill="#3734A9"/>
<path d="M150.599 88.7772V89.9976H148.413V96.5435H147.137V89.9976H144.94V88.7772H150.599Z" fill="#718EBF"/>
<path d="M133.675 4.72031C133.675 2.42253 135.538 0.559814 137.836 0.559814H157.251C159.549 0.559814 161.412 2.42253 161.412 4.72031V82.3829H133.675V4.72031Z" fill="#3734A9"/>
<path d="M184.895 89.9976H181.622V92.1722H184.784V93.3926H181.622V96.5435H180.346V88.7772H184.895V89.9976Z" fill="#718EBF"/>
<path d="M166.959 69.9015C166.959 67.6037 168.822 65.741 171.119 65.741H190.535C192.833 65.741 194.696 67.6037 194.696 69.9015V82.3829H166.959V69.9015Z" fill="#E8F2FF"/>
<path d="M214.976 96.6876C214.229 96.6876 213.593 96.5174 213.068 96.1772C212.55 95.837 212.188 95.371 211.98 94.7793L213.079 94.1358C213.389 95.0086 214.033 95.445 215.009 95.445C215.49 95.445 215.849 95.3525 216.085 95.1676C216.33 94.9753 216.452 94.7275 216.452 94.4243C216.452 94.1062 216.322 93.8658 216.063 93.7031C215.804 93.533 215.346 93.3481 214.688 93.1484C214.318 93.0374 214.018 92.9339 213.789 92.8377C213.56 92.7416 213.315 92.6084 213.057 92.4383C212.805 92.2608 212.617 92.0426 212.491 91.7837C212.365 91.5249 212.302 91.2216 212.302 90.874C212.302 90.1861 212.546 89.6425 213.034 89.2431C213.523 88.8363 214.111 88.6328 214.798 88.6328C215.42 88.6328 215.963 88.7845 216.429 89.0877C216.895 89.391 217.254 89.8089 217.506 90.3414L216.429 90.9627C216.104 90.2379 215.56 89.8755 214.798 89.8755C214.429 89.8755 214.133 89.9642 213.911 90.1417C213.689 90.3118 213.578 90.5448 213.578 90.8407C213.578 91.1291 213.689 91.3584 213.911 91.5286C214.14 91.6913 214.551 91.8651 215.142 92.05C215.438 92.1462 215.653 92.2201 215.786 92.2719C215.926 92.3163 216.119 92.3902 216.363 92.4938C216.614 92.5973 216.803 92.7009 216.929 92.8044C217.054 92.908 217.188 93.0374 217.328 93.1928C217.476 93.3481 217.58 93.5256 217.639 93.7253C217.698 93.925 217.727 94.1506 217.727 94.4021C217.727 95.1047 217.472 95.6632 216.962 96.0774C216.459 96.4842 215.797 96.6876 214.976 96.6876Z" fill="#718EBF"/>
<path d="M200.243 43.5516C200.243 41.2538 202.106 39.3911 204.403 39.3911H223.819C226.117 39.3911 227.98 41.2538 227.98 43.5516V82.3829H200.243V43.5516Z" fill="#3734A9"/>
<path d="M249.647 96.6876C248.899 96.6876 248.263 96.5174 247.738 96.1772C247.22 95.837 246.858 95.371 246.651 94.7793L247.749 94.1358C248.06 95.0086 248.703 95.445 249.68 95.445C250.161 95.445 250.519 95.3525 250.756 95.1676C251 94.9753 251.122 94.7275 251.122 94.4243C251.122 94.1062 250.993 93.8658 250.734 93.7031C250.475 93.533 250.016 93.3481 249.358 93.1484C248.988 93.0374 248.689 92.9339 248.459 92.8377C248.23 92.7416 247.986 92.6084 247.727 92.4383C247.476 92.2608 247.287 92.0426 247.161 91.7837C247.036 91.5249 246.973 91.2216 246.973 90.874C246.973 90.1861 247.217 89.6425 247.705 89.2431C248.193 88.8363 248.781 88.6328 249.469 88.6328C250.09 88.6328 250.634 88.7845 251.1 89.0877C251.566 89.391 251.925 89.8089 252.176 90.3414L251.1 90.9627C250.774 90.2379 250.231 89.8755 249.469 89.8755C249.099 89.8755 248.803 89.9642 248.581 90.1417C248.36 90.3118 248.249 90.5448 248.249 90.8407C248.249 91.1291 248.36 91.3584 248.581 91.5286C248.811 91.6913 249.221 91.8651 249.813 92.05C250.109 92.1462 250.323 92.2201 250.456 92.2719C250.597 92.3163 250.789 92.3902 251.033 92.4938C251.285 92.5973 251.473 92.7009 251.599 92.8044C251.725 92.908 251.858 93.0374 251.999 93.1928C252.147 93.3481 252.25 93.5256 252.309 93.7253C252.368 93.925 252.398 94.1506 252.398 94.4021C252.398 95.1047 252.143 95.6632 251.632 96.0774C251.13 96.4842 250.468 96.6876 249.647 96.6876Z" fill="#718EBF"/>
<path d="M233.527 22.7491C233.527 20.4513 235.389 18.5886 237.687 18.5886H257.103C259.401 18.5886 261.263 20.4513 261.263 22.7491V82.3829H233.527V22.7491Z" fill="#3734A9"/>
</svg>
