<svg width="19" height="95" viewBox="0 0 19 95" fill="none" xmlns="http://www.w3.org/2000/svg">
<path d="M2.77523 2.69871H3.8847V10.465H2.60881V4.06335L1.04447 4.50714L0.733815 3.41986L2.77523 2.69871ZM10.4535 9.51083C9.92097 10.2431 9.17393 10.6092 8.21239 10.6092C7.25085 10.6092 6.50011 10.2431 5.96017 9.51083C5.42763 8.77858 5.16136 7.80225 5.16136 6.58184C5.16136 5.36143 5.42763 4.3851 5.96017 3.65285C6.50011 2.9206 7.25085 2.55448 8.21239 2.55448C9.17393 2.55448 9.92097 2.9206 10.4535 3.65285C10.9934 4.3851 11.2634 5.36143 11.2634 6.58184C11.2634 7.80225 10.9934 8.77858 10.4535 9.51083ZM8.21239 9.3666C8.78931 9.3666 9.2294 9.12621 9.53265 8.64544C9.83591 8.16467 9.98753 7.47681 9.98753 6.58184C9.98753 5.68687 9.83591 4.999 9.53265 4.51823C9.2294 4.03746 8.78931 3.79708 8.21239 3.79708C7.64286 3.79708 7.20278 4.03746 6.89213 4.51823C6.58887 4.999 6.43724 5.68687 6.43724 6.58184C6.43724 7.47681 6.58887 8.16467 6.89213 8.64544C7.20278 9.12621 7.64286 9.3666 8.21239 9.3666ZM17.3087 10.465H15.8775L13.6031 7.9021V10.465H12.4049V2.69871H13.6031V7.36956L15.7555 4.91764H17.2199L14.7791 7.63583L17.3087 10.465Z" fill="#718EBF"/>
<path d="M13.0638 34.2298V35.4169H12.1762V36.8148H10.8892V35.4169H7.07264V34.2298L9.74645 29.0486H11.1333L8.45947 34.2298H10.8892V32.2105H12.1762V34.2298H13.0638ZM18.856 36.8148H17.4248L15.1504 34.252V36.8148H13.9522V29.0486H15.1504V33.7194L17.3028 31.2675H18.7673L16.3264 33.9857L18.856 36.8148Z" fill="#718EBF"/>
<path d="M6.7248 63.1646V62.166L9.43189 59.4035C10.0902 58.7452 10.4193 58.1757 10.4193 57.6949C10.4193 57.3177 10.3047 57.0255 10.0754 56.8184C9.85349 56.6039 9.56873 56.4967 9.2211 56.4967C8.57021 56.4967 8.08944 56.8184 7.77879 57.4619L6.70261 56.8295C6.94669 56.3118 7.29063 55.9197 7.73441 55.6535C8.1782 55.3872 8.67006 55.2541 9.21 55.2541C9.89047 55.2541 10.4748 55.4686 10.963 55.8976C11.4511 56.3265 11.6952 56.9109 11.6952 57.6505C11.6952 58.4419 11.2551 59.2851 10.3749 60.1801L8.62198 61.933H11.8394V63.1646H6.7248ZM17.856 63.1646H16.4248L14.1504 60.6017V63.1646H12.9522V55.3983H14.1504V60.0691L16.3028 57.6172H17.7673L15.3264 60.3354L17.856 63.1646Z" fill="#718EBF"/>
<path d="M15.8712 89.947C15.3386 90.6792 14.5916 91.0454 13.6301 91.0454C12.6685 91.0454 11.9178 90.6792 11.3778 89.947C10.8453 89.2147 10.579 88.2384 10.579 87.018C10.579 85.7976 10.8453 84.8213 11.3778 84.089C11.9178 83.3568 12.6685 82.9906 13.6301 82.9906C14.5916 82.9906 15.3386 83.3568 15.8712 84.089C16.4111 84.8213 16.6811 85.7976 16.6811 87.018C16.6811 88.2384 16.4111 89.2147 15.8712 89.947ZM13.6301 89.8028C14.207 89.8028 14.6471 89.5624 14.9503 89.0816C15.2536 88.6008 15.4052 87.913 15.4052 87.018C15.4052 86.123 15.2536 85.4352 14.9503 84.9544C14.6471 84.4736 14.207 84.2332 13.6301 84.2332C13.0605 84.2332 12.6204 84.4736 12.3098 84.9544C12.0065 85.4352 11.8549 86.123 11.8549 87.018C11.8549 87.913 12.0065 88.6008 12.3098 89.0816C12.6204 89.5624 13.0605 89.8028 13.6301 89.8028Z" fill="#718EBF"/>
</svg>
